<svg viewBox="0 0 100 100"
    xmlns="http://www.w3.org/2000/svg">
    <path d="m70.2 40.032c.343.671 1.03 1.077 1.759 1.077.14 0 .279-.015.418-.044l12.781-2.757c.997-.215 1.666-1.154 1.545-2.166l-1.374-11.503c-.064-.55-.358-1.047-.809-1.371-.45-.323-1.014-.443-1.556-.33l-16.898 3.517c-.604.125-1.113.526-1.38 1.082s-.258 1.204.022 1.753zm11.461-12.786.903 7.578-9.535 2.057-3.621-7.084z"/>
    <path d="m77.75 44.264c-2.268 0-4.43.462-6.396 1.297l-11.789-20.597c-.095-.166-.216-.306-.347-.433-.203-.307-.422-.615-.632-.85-.832-.934-1.208-1.361-12.607 1.39-1.062.256-1.714 1.324-1.458 2.385.219.905 1.027 1.513 1.92 1.513.153 0 .309-.018.465-.056 3.414-.824 7.457-1.695 9.184-1.937.016.025.03.052.047.078.656 2.056 3.174 11.07-1.232 16.047-5.306 5.99-12.961 7.928-13.034 7.946-.039.009-.073.027-.111.039l-5.73-12.056h3.549c.331 0 .654-.104.924-.298.801-.577 1.527-1.594 1.164-2.72-.537-1.665-2.733-1.665-3.672-1.665-3.43 0-7.521-1.346-8.132-1.781-.797-.717-2.287-1.039-3.41-1.039-1.286 0-2.302.398-2.938 1.152-.388.459-.806 1.261-.599 2.469.017.096.042.191.075.282.137.368 1.515 3.599 7.819 3.599h.843l8.522 17.929h-1.948c-1.694-7.263-8.206-12.695-15.978-12.695-9.054 0-16.42 7.366-16.42 16.42s7.366 16.42 16.42 16.42c6.614 0 12.314-3.938 14.913-9.586l5.485 1.5c.042.011.084.021.127.029.134.027 1.348.266 2.895.266 4.698 0 7.504-2.28 7.504-6.1 0-1.79-.681-3.261-1.905-4.328l15.277-13.768 1.383 2.416c-4.003 2.998-6.598 7.777-6.598 13.151 0 9.054 7.365 16.42 16.42 16.42s16.421-7.366 16.421-16.42c0-9.053-7.366-16.419-16.421-16.419zm-55.501 29.376c-7.143 0-12.954-5.812-12.954-12.955s5.811-12.955 12.954-12.955c5.846 0 10.778 3.9 12.383 9.229h-11.994c-.094-.006-.24-.013-.419-.013-2.648 0-3.588 1.532-3.588 2.845 0 1.665 1.146 2.845 2.279 3.274.059.022.119.041.18.059l12.677 3.467c-2.151 4.18-6.502 7.049-11.518 7.049zm23.42-8.279c-1.002 0-1.845-.14-2.055-.177l-15.626-4.271h16.553c.038 0 .084-.003.123-.005.024-.001.138-.007.316-.007 3.688 0 4.239 1.449 4.239 2.312.001.643.001 2.148-3.55 2.148zm1.626-8.217c-.719-.125-1.488-.195-2.314-.195-.194 0-.333.005-.431.01l-1.072-2.256c2.186-.647 9.153-3.073 14.386-8.981 2.465-2.785 3.355-6.315 3.501-9.656l3.171 5.543zm30.455 16.496c-7.143 0-12.953-5.812-12.953-12.955 0-4.088 1.906-7.732 4.873-10.107l6.217 10.861c.365.637 1.031.994 1.717.994.332 0 .671-.083.98-.26.947-.543 1.275-1.751.733-2.698l-6.22-10.866c1.445-.56 3.01-.878 4.652-.878 7.143 0 12.955 5.812 12.955 12.955s-5.811 12.954-12.954 12.954z"/>
</svg>
